<svg xmlns="http://www.w3.org/2000/svg" viewBox="0 0 1200 300" preserveAspectRatio="none">
  <defs>
    <linearGradient id="grad" x1="0%" y1="0%" x2="100%" y2="100%">
      <stop offset="0%" style="stop-color:#1e88e5;stop-opacity:0.8" />
      <stop offset="100%" style="stop-color:#0d47a1;stop-opacity:0.9" />
    </linearGradient>
  </defs>
  <path d="M0,0 L1200,0 L1200,200 Q900,250 600,220 Q300,190 0,250 L0,0 Z" fill="url(#grad)" />
  <path d="M1100,50 Q1050,100 1150,150" stroke="rgba(255,255,255,0.2)" stroke-width="2" fill="none" />
  <path d="M100,30 Q200,60 150,120" stroke="rgba(255,255,255,0.2)" stroke-width="2" fill="none" />
  <circle cx="1100" cy="50" r="3" fill="white" opacity="0.5" />
  <circle cx="1050" cy="100" r="2" fill="white" opacity="0.3" />
  <circle cx="1150" cy="150" r="3" fill="white" opacity="0.5" />
  <circle cx="100" cy="30" r="3" fill="white" opacity="0.5" />
  <circle cx="200" cy="60" r="2" fill="white" opacity="0.3" />
  <circle cx="150" cy="120" r="3" fill="white" opacity="0.5" />
  <circle cx="800" cy="80" r="2" fill="white" opacity="0.6" />
  <circle cx="700" cy="120" r="1.5" fill="white" opacity="0.4" />
  <circle cx="900" cy="100" r="1" fill="white" opacity="0.5" />
  <circle cx="300" cy="70" r="2" fill="white" opacity="0.6" />
  <circle cx="400" cy="40" r="1.5" fill="white" opacity="0.4" />
  <circle cx="500" cy="90" r="1" fill="white" opacity="0.5" />
</svg> 